<?xml version="1.0" encoding="utf-8"?>
<!-- Generator: Adobe Illustrator 18.1.1, SVG Export Plug-In . SVG Version: 6.00 Build 0)  -->
<svg version="1.1" id="Layer_1" xmlns="http://www.w3.org/2000/svg" xmlns:xlink="http://www.w3.org/1999/xlink" x="0px" y="0px"
	 viewBox="-293 384 25 25" enable-background="new -293 384 25 25" xml:space="preserve">
<g>
	<g>
		<g>
			<circle fill="#FFFFFF" cx="-280.5" cy="396.5" r="12.5"/>
			<path fill="#32C757" d="M-285.9,401.5c0,0.3,0.3,0.6,0.6,0.6h9.6c0.3,0,0.6-0.3,0.6-0.6v-6.5h-10.8V401.5z"/>
			<path fill="#32C757" d="M-275.1,392.6c0-0.3-0.3-0.6-0.6-0.6h-9.6c-0.3,0-0.6,0.3-0.6,0.6v1.3h10.8V392.6z M-284.1,393.4h-0.7
				v-0.8h0.7V393.4z M-282.8,393.4h-0.7v-0.8h0.7V393.4z M-281.5,393.4h-0.7v-0.8h0.7V393.4z"/>
			<path fill="#32C757" d="M-280.4,385.6c-6.1,0-11,4.9-11,11s4.9,11,11,11c6.1,0,11-4.9,11-11
				C-269.4,390.5-274.3,385.6-280.4,385.6z M-274.1,401.5c0,0.9-0.8,1.7-1.7,1.7h-9.3c-0.9,0-1.7-0.8-1.7-1.7v-8.7
				c0-0.9,0.8-1.7,1.7-1.7h9.3c0.9,0,1.7,0.8,1.7,1.7V401.5z"/>
		</g>
	</g>
</g>
</svg>
