<?xml version="1.0" encoding="utf-8"?>
<!-- Generator: Adobe Illustrator 18.1.1, SVG Export Plug-In . SVG Version: 6.00 Build 0)  -->
<svg version="1.1" id="Layer_1" xmlns="http://www.w3.org/2000/svg" xmlns:xlink="http://www.w3.org/1999/xlink" x="0px" y="0px"
	 viewBox="0 0 100 100" enable-background="new 0 0 100 100" xml:space="preserve">
<circle fill="#AE2B28" cx="50" cy="50" r="50"/>
<g>
	<path fill="#FFFFFF" d="M28.3,27.9c0-1.2,0.3-2.1,0.9-2.6c0.6-0.6,1.3-0.8,2.2-0.8c0.8,0,1.6,0.3,2.2,0.9c0.6,0.6,0.9,1.4,0.9,2.6
		s-0.3,2.1-0.9,2.6c-0.6,0.6-1.3,0.9-2.2,0.9c-0.9,0-1.6-0.3-2.2-0.9C28.6,30,28.3,29.1,28.3,27.9z M34,71.8h-5.2V37.3H34V71.8z"/>
	<path fill="#FFFFFF" d="M51.2,52.7v19.2h-5.4V25.7h12.6c5.7,0,9.8,1.1,12.5,3.2s4,5.4,4,9.8c0,6.1-3.1,10.2-9.3,12.4l12.5,20.7H72
		L60.8,52.7H51.2z M51.2,48.1h7.3c3.8,0,6.6-0.8,8.3-2.3c1.8-1.5,2.6-3.8,2.6-6.8c0-3-0.9-5.2-2.7-6.6c-1.8-1.3-4.7-2-8.7-2h-7V48.1
		z"/>
</g>
</svg>
