<?xml version="1.0" encoding="utf-8"?>
<!-- Generator: Adobe Illustrator 18.1.1, SVG Export Plug-In . SVG Version: 6.00 Build 0)  -->
<svg version="1.1" id="Layer_1" xmlns="http://www.w3.org/2000/svg" xmlns:xlink="http://www.w3.org/1999/xlink" x="0px" y="0px"
	 viewBox="-293 384 25 25" enable-background="new -293 384 25 25" xml:space="preserve">
<g>
	<g>
		<circle fill="#FFFFFF" cx="-280.5" cy="396.5" r="12.5"/>
		<path fill="#D9681C" d="M-280.5,385.5c-6.1,0-11,4.9-11,11c0,6.1,4.9,11,11,11c6.1,0,11-4.9,11-11S-274.4,385.5-280.5,385.5z
			 M-275.3,393.4l-1,1l-2.1-2.1l-0.8,0.8l2.1,2.1l-5.2,5.2l-2.1-2.1l-0.8,0.8l2.1,2.1l-0.5,0.5l0,0c-0.1,0.1-0.2,0.2-0.3,0.2l-2,0.4
			c0,0-0.1,0-0.1,0c-0.1,0-0.2,0-0.3-0.1c-0.1-0.1-0.1-0.2-0.1-0.4l0.4-2c0-0.1,0.1-0.2,0.2-0.3l0,0l8.4-8.4c0.1-0.1,0.3-0.1,0.4,0
			l1.7,1.7C-275.1,393.1-275.1,393.3-275.3,393.4z"/>
	</g>
</g>
</svg>
