
<svg version="1.1" id="Capa_1" xmlns="http://www.w3.org/2000/svg" xmlns:xlink="http://www.w3.org/1999/xlink" x="0px" y="0px"
	 viewBox="206 -206 512 512" enable-background="new 206 -206 512 512" xml:space="preserve" width="20px" height="20px">
<g>
	<circle fill="#FFFFFF" cx="462" cy="50" r="210"/>
	<path fill="#AE2B28" d="M462-206C320.6-206,206-91.4,206,50c0,141.4,114.6,256,256,256S718,191.4,718,50
		C718-91.4,603.4-206,462-206z M597.2,167.5L576.7,188c-3.7,3.7-14.4,5.9-14.7,5.9c-64.8,0.6-127.3-24.9-173.2-70.8
		c-46-46-71.5-108.7-70.8-173.7c0,0,2.3-10.4,6-14.1l20.5-20.5c7.5-7.5,21.9-10.9,32-7.6l4.3,1.4c10.1,3.4,20.6,14.5,23.4,24.8
		l10.3,37.8c2.8,10.3-1,24.9-8.5,32.4l-13.7,13.7c13.4,49.7,52.5,88.8,102.2,102.3l13.7-13.7c7.5-7.5,22.2-11.3,32.4-8.5l37.8,10.3
		c10.3,2.8,21.4,13.3,24.8,23.4l1.4,4.4C608.1,145.7,604.7,160.1,597.2,167.5z"/>
</g>
</svg>
