<?xml version="1.0" encoding="utf-8"?>
<!-- Generator: Adobe Illustrator 18.1.1, SVG Export Plug-In . SVG Version: 6.00 Build 0)  -->
<svg version="1.1" id="Layer_1" xmlns="http://www.w3.org/2000/svg" xmlns:xlink="http://www.w3.org/1999/xlink" x="0px" y="0px"
	 viewBox="-293 384 25 25" enable-background="new -293 384 25 25" xml:space="preserve">
<g>
	<g>
		<g>
			<circle fill="#FFFFFF" cx="-280.5" cy="396.5" r="12.5"/>
			<circle fill="#328BC7" cx="-280.5" cy="396.9" r="2.1"/>
			<path fill="#328BC7" d="M-280.5,385.5c-6.1,0-11,4.9-11,11c0,6.1,4.9,11,11,11c6.1,0,11-4.9,11-11S-274.4,385.5-280.5,385.5z
				 M-274.7,398.1l-1.6,0.1c-0.1,0.3-0.2,0.6-0.3,0.8l1,1.2l-1.6,1.6l-1.2-1c-0.3,0.1-0.5,0.3-0.8,0.3l-0.1,1.6l-2.3,0l-0.1-1.6
				c-0.3-0.1-0.6-0.2-0.8-0.3l-1.2,1l-1.6-1.6l1-1.2c-0.1-0.3-0.3-0.5-0.3-0.8l-1.6-0.1v-2.3l1.6-0.1c0.1-0.3,0.2-0.6,0.3-0.8
				l-1-1.2l1.6-1.6l1.2,1c0.3-0.1,0.5-0.3,0.8-0.3l0.1-1.6h2.3l0.1,1.6c0.3,0.1,0.6,0.2,0.8,0.3l1.2-1l1.6,1.6l-1,1.2
				c0.1,0.3,0.3,0.5,0.3,0.8l1.6,0.1L-274.7,398.1z"/>
		</g>
	</g>
</g>
</svg>
